<svg xmlns="http://www.w3.org/2000/svg" viewBox="0 0 120 120" role="img" aria-label="Butterfly">
  <ellipse cx="32" cy="38" rx="24" ry="32" transform="rotate(-20 32 38)" fill="#A855F7"/>
  <ellipse cx="88" cy="38" rx="24" ry="32" transform="rotate(20 88 38)" fill="#A855F7"/>
  <ellipse cx="36" cy="84" rx="20" ry="26" transform="rotate(-14 36 84)" fill="#EC4899"/>
  <ellipse cx="84" cy="84" rx="20" ry="26" transform="rotate(14 84 84)" fill="#EC4899"/>
  <ellipse cx="32" cy="38" rx="10" ry="14" transform="rotate(-20 32 38)" fill="#E9D5FF"/>
  <ellipse cx="88" cy="38" rx="10" ry="14" transform="rotate(20 88 38)" fill="#E9D5FF"/>
  <ellipse cx="60" cy="62" rx="8" ry="30" fill="#4C1D95"/>
  <circle cx="60" cy="28" r="6" fill="#4C1D95"/>
  <path d="M54 24 Q44 8 36 16" fill="none" stroke="#4C1D95" stroke-width="3.5" stroke-linecap="round"/>
  <path d="M66 24 Q76 8 84 16" fill="none" stroke="#4C1D95" stroke-width="3.5" stroke-linecap="round"/>
</svg>
