<svg xmlns="http://www.w3.org/2000/svg" viewBox="0 0 120 120" role="img" aria-label="Cat">
  <path d="M34 50 L40 12 L54 46 Z" fill="#EA580C"/>
  <path d="M86 50 L80 12 L66 46 Z" fill="#EA580C"/>
  <path d="M38 42 L42 22 L50 42 Z" fill="#FDBA74"/>
  <path d="M82 42 L78 22 L70 42 Z" fill="#FDBA74"/>
  <ellipse cx="60" cy="90" rx="30" ry="20" fill="#FB923C"/>
  <circle cx="60" cy="56" r="28" fill="#FDBA74"/>
  <path d="M88 78 Q112 68 104 100 Q94 88 88 78 Z" fill="#EA580C"/>
  <ellipse cx="48" cy="52" rx="5" ry="6" fill="#1C1917"/>
  <ellipse cx="72" cy="52" rx="5" ry="6" fill="#1C1917"/>
  <ellipse cx="49" cy="51" rx="1.5" ry="2" fill="#fff"/>
  <ellipse cx="73" cy="51" rx="1.5" ry="2" fill="#fff"/>
  <path d="M54 62 L60 68 L66 62" fill="none" stroke="#1C1917" stroke-width="2.5" stroke-linecap="round" stroke-linejoin="round"/>
  <path d="M34 56 H48 M72 56 H86" stroke="#1C1917" stroke-width="1.8" stroke-linecap="round"/>
  <path d="M36 62 H46 M74 62 H84" stroke="#1C1917" stroke-width="1.8" stroke-linecap="round"/>
</svg>
