<svg xmlns="http://www.w3.org/2000/svg" viewBox="0 0 120 120" role="img" aria-label="Rabbit">
  <ellipse cx="40" cy="32" rx="11" ry="30" transform="rotate(-14 40 32)" fill="#A78BFA"/>
  <ellipse cx="72" cy="32" rx="11" ry="30" transform="rotate(14 72 32)" fill="#A78BFA"/>
  <ellipse cx="40" cy="30" rx="5" ry="18" transform="rotate(-14 40 30)" fill="#F5D0FE"/>
  <ellipse cx="72" cy="30" rx="5" ry="18" transform="rotate(14 72 30)" fill="#F5D0FE"/>
  <ellipse cx="56" cy="94" rx="28" ry="18" fill="#8B5CF6"/>
  <circle cx="56" cy="64" r="26" fill="#C4B5FD"/>
  <ellipse cx="84" cy="98" rx="9" ry="5" transform="rotate(28 84 98)" fill="#7C3AED"/>
  <circle cx="46" cy="60" r="4" fill="#1C1917"/>
  <circle cx="66" cy="60" r="4" fill="#1C1917"/>
  <circle cx="47.2" cy="58.8" r="1.3" fill="#fff"/>
  <circle cx="67.2" cy="58.8" r="1.3" fill="#fff"/>
  <ellipse cx="56" cy="70" rx="5" ry="3.5" fill="#F472B6"/>
  <circle cx="42" cy="68" r="4" fill="#F9A8D4" opacity="0.7"/>
  <circle cx="70" cy="68" r="4" fill="#F9A8D4" opacity="0.7"/>
</svg>
